<mxfile host="Electron" modified="2023-11-19T20:16:49.809Z" agent="Mozilla/5.0 (X11; Linux x86_64) AppleWebKit/537.36 (KHTML, like Gecko) draw.io/22.1.2 Chrome/114.0.5735.289 Electron/25.9.4 Safari/537.36" etag="JXGcoA1YQ9w6Cqb_IkrK" version="22.1.2" type="device" pages="2">
  <diagram name="Frames" id="rnASgaXXlBeDb9owz-ok">
    <mxGraphModel dx="1195" dy="725" grid="1" gridSize="10" guides="1" tooltips="1" connect="1" arrows="1" fold="1" page="1" pageScale="1" pageWidth="850" pageHeight="1100" math="0" shadow="0">
      <root>
        <mxCell id="0" />
        <mxCell id="1" parent="0" />
        <mxCell id="lLIFbovUc9EA7OUjyB9d-128" value="" style="endArrow=none;dashed=1;html=1;rounded=0;entryX=1;entryY=1;entryDx=0;entryDy=0;exitX=1;exitY=0;exitDx=0;exitDy=0;" parent="1" source="lLIFbovUc9EA7OUjyB9d-123" target="lLIFbovUc9EA7OUjyB9d-103" edge="1">
          <mxGeometry width="50" height="50" relative="1" as="geometry">
            <mxPoint x="220" y="950" as="sourcePoint" />
            <mxPoint x="270" y="900" as="targetPoint" />
          </mxGeometry>
        </mxCell>
        <mxCell id="lLIFbovUc9EA7OUjyB9d-127" value="" style="endArrow=none;dashed=1;html=1;rounded=0;entryX=0;entryY=1;entryDx=0;entryDy=0;" parent="1" target="lLIFbovUc9EA7OUjyB9d-103" edge="1">
          <mxGeometry width="50" height="50" relative="1" as="geometry">
            <mxPoint x="120" y="920" as="sourcePoint" />
            <mxPoint x="170" y="870" as="targetPoint" />
          </mxGeometry>
        </mxCell>
        <mxCell id="lLIFbovUc9EA7OUjyB9d-74" value="" style="endArrow=none;dashed=1;html=1;rounded=0;exitX=0;exitY=0;exitDx=0;exitDy=0;" parent="1" source="lLIFbovUc9EA7OUjyB9d-77" edge="1">
          <mxGeometry width="50" height="50" relative="1" as="geometry">
            <mxPoint x="111" y="688" as="sourcePoint" />
            <mxPoint x="161" y="638" as="targetPoint" />
          </mxGeometry>
        </mxCell>
        <mxCell id="lLIFbovUc9EA7OUjyB9d-75" value="" style="endArrow=none;dashed=1;html=1;rounded=0;entryX=0.987;entryY=0.955;entryDx=0;entryDy=0;exitX=1;exitY=0;exitDx=0;exitDy=0;entryPerimeter=0;" parent="1" source="lLIFbovUc9EA7OUjyB9d-76" edge="1">
          <mxGeometry width="50" height="50" relative="1" as="geometry">
            <mxPoint x="160" y="690" as="sourcePoint" />
            <mxPoint x="199" y="638" as="targetPoint" />
          </mxGeometry>
        </mxCell>
        <mxCell id="lLIFbovUc9EA7OUjyB9d-45" value="" style="endArrow=none;dashed=1;html=1;rounded=0;exitX=0;exitY=0;exitDx=0;exitDy=0;" parent="1" source="lLIFbovUc9EA7OUjyB9d-43" edge="1">
          <mxGeometry width="50" height="50" relative="1" as="geometry">
            <mxPoint x="111" y="448" as="sourcePoint" />
            <mxPoint x="161" y="398" as="targetPoint" />
          </mxGeometry>
        </mxCell>
        <mxCell id="lLIFbovUc9EA7OUjyB9d-46" value="" style="endArrow=none;dashed=1;html=1;rounded=0;entryX=0.987;entryY=0.955;entryDx=0;entryDy=0;exitX=1;exitY=0;exitDx=0;exitDy=0;entryPerimeter=0;" parent="1" source="lLIFbovUc9EA7OUjyB9d-44" target="lLIFbovUc9EA7OUjyB9d-34" edge="1">
          <mxGeometry width="50" height="50" relative="1" as="geometry">
            <mxPoint x="160" y="450" as="sourcePoint" />
            <mxPoint x="210" y="400" as="targetPoint" />
          </mxGeometry>
        </mxCell>
        <mxCell id="lLIFbovUc9EA7OUjyB9d-1" value="&lt;font style=&quot;font-size: 10px;&quot;&gt;Logic Link Frame&lt;/font&gt;" style="rounded=0;whiteSpace=wrap;html=1;fillColor=#fff2cc;strokeColor=#d6b656;" parent="1" vertex="1">
          <mxGeometry x="200" y="220" width="280" height="20" as="geometry" />
        </mxCell>
        <mxCell id="lLIFbovUc9EA7OUjyB9d-4" value="&lt;font style=&quot;font-size: 10px;&quot;&gt;Len&lt;/font&gt;" style="rounded=0;whiteSpace=wrap;html=1;fillColor=#dae8fc;strokeColor=#6c8ebf;" parent="1" vertex="1">
          <mxGeometry x="160" y="220" width="40" height="20" as="geometry" />
        </mxCell>
        <mxCell id="lLIFbovUc9EA7OUjyB9d-5" value="" style="verticalLabelPosition=bottom;shadow=0;dashed=0;align=center;html=1;verticalAlign=top;strokeWidth=1;shape=mxgraph.mockup.markup.curlyBrace;whiteSpace=wrap;strokeColor=#999999;" parent="1" vertex="1">
          <mxGeometry x="160" y="195" width="40" height="20" as="geometry" />
        </mxCell>
        <mxCell id="lLIFbovUc9EA7OUjyB9d-6" value="" style="verticalLabelPosition=bottom;shadow=0;dashed=0;align=center;html=1;verticalAlign=top;strokeWidth=1;shape=mxgraph.mockup.markup.curlyBrace;whiteSpace=wrap;strokeColor=#999999;" parent="1" vertex="1">
          <mxGeometry x="200" y="200" width="280" height="10" as="geometry" />
        </mxCell>
        <mxCell id="lLIFbovUc9EA7OUjyB9d-8" value="&lt;font style=&quot;font-size: 10px;&quot;&gt;222B&lt;/font&gt;" style="text;html=1;align=center;verticalAlign=middle;resizable=0;points=[];autosize=1;strokeColor=none;fillColor=none;" parent="1" vertex="1">
          <mxGeometry x="296" y="146" width="50" height="30" as="geometry" />
        </mxCell>
        <mxCell id="lLIFbovUc9EA7OUjyB9d-9" value="&lt;blockquote style=&quot;margin: 0 0 0 40px; border: none; padding: 0px;&quot;&gt;&lt;span style=&quot;font-size: 10px;&quot;&gt;1B&lt;/span&gt;&lt;/blockquote&gt;" style="text;html=1;align=center;verticalAlign=middle;resizable=0;points=[];autosize=1;strokeColor=none;fillColor=none;" parent="1" vertex="1">
          <mxGeometry x="120" y="179" width="80" height="30" as="geometry" />
        </mxCell>
        <mxCell id="lLIFbovUc9EA7OUjyB9d-10" value="&lt;blockquote style=&quot;margin: 0 0 0 40px; border: none; padding: 0px;&quot;&gt;&lt;span style=&quot;font-size: 10px;&quot;&gt;221B&lt;/span&gt;&lt;/blockquote&gt;" style="text;html=1;align=center;verticalAlign=middle;resizable=0;points=[];autosize=1;strokeColor=none;fillColor=none;" parent="1" vertex="1">
          <mxGeometry x="275" y="179" width="90" height="30" as="geometry" />
        </mxCell>
        <mxCell id="lLIFbovUc9EA7OUjyB9d-13" value="" style="endArrow=none;html=1;rounded=0;" parent="1" edge="1">
          <mxGeometry width="50" height="50" relative="1" as="geometry">
            <mxPoint x="160" y="139" as="sourcePoint" />
            <mxPoint x="480" y="139" as="targetPoint" />
          </mxGeometry>
        </mxCell>
        <mxCell id="lLIFbovUc9EA7OUjyB9d-14" value="Physical Frame" style="text;html=1;align=center;verticalAlign=middle;resizable=0;points=[];autosize=1;strokeColor=none;fillColor=none;" parent="1" vertex="1">
          <mxGeometry x="156" y="116" width="110" height="30" as="geometry" />
        </mxCell>
        <mxCell id="lLIFbovUc9EA7OUjyB9d-26" value="" style="verticalLabelPosition=bottom;shadow=0;dashed=0;align=center;html=1;verticalAlign=top;strokeWidth=1;shape=mxgraph.mockup.markup.curlyBrace;whiteSpace=wrap;strokeColor=#999999;" parent="1" vertex="1">
          <mxGeometry x="161" y="167" width="319" height="10" as="geometry" />
        </mxCell>
        <mxCell id="lLIFbovUc9EA7OUjyB9d-33" value="&lt;font style=&quot;font-size: 10px;&quot;&gt;MAC Frame&lt;/font&gt;" style="rounded=0;whiteSpace=wrap;html=1;fillColor=#fff2cc;strokeColor=#d6b656;" parent="1" vertex="1">
          <mxGeometry x="200" y="379" width="280" height="20" as="geometry" />
        </mxCell>
        <mxCell id="lLIFbovUc9EA7OUjyB9d-34" value="&lt;font style=&quot;font-size: 10px;&quot;&gt;CTRL&lt;/font&gt;" style="rounded=0;whiteSpace=wrap;html=1;fillColor=#dae8fc;strokeColor=#6c8ebf;" parent="1" vertex="1">
          <mxGeometry x="160" y="379" width="40" height="20" as="geometry" />
        </mxCell>
        <mxCell id="lLIFbovUc9EA7OUjyB9d-35" value="" style="verticalLabelPosition=bottom;shadow=0;dashed=0;align=center;html=1;verticalAlign=top;strokeWidth=1;shape=mxgraph.mockup.markup.curlyBrace;whiteSpace=wrap;strokeColor=#999999;" parent="1" vertex="1">
          <mxGeometry x="160" y="354" width="40" height="20" as="geometry" />
        </mxCell>
        <mxCell id="lLIFbovUc9EA7OUjyB9d-36" value="" style="verticalLabelPosition=bottom;shadow=0;dashed=0;align=center;html=1;verticalAlign=top;strokeWidth=1;shape=mxgraph.mockup.markup.curlyBrace;whiteSpace=wrap;strokeColor=#999999;" parent="1" vertex="1">
          <mxGeometry x="200" y="359" width="280" height="10" as="geometry" />
        </mxCell>
        <mxCell id="lLIFbovUc9EA7OUjyB9d-37" value="&lt;font style=&quot;font-size: 10px;&quot;&gt;221B&lt;/font&gt;" style="text;html=1;align=center;verticalAlign=middle;resizable=0;points=[];autosize=1;strokeColor=none;fillColor=none;" parent="1" vertex="1">
          <mxGeometry x="295" y="305" width="50" height="30" as="geometry" />
        </mxCell>
        <mxCell id="lLIFbovUc9EA7OUjyB9d-38" value="&lt;blockquote style=&quot;margin: 0 0 0 40px; border: none; padding: 0px;&quot;&gt;&lt;span style=&quot;font-size: 10px;&quot;&gt;1B&lt;/span&gt;&lt;/blockquote&gt;" style="text;html=1;align=center;verticalAlign=middle;resizable=0;points=[];autosize=1;strokeColor=none;fillColor=none;" parent="1" vertex="1">
          <mxGeometry x="120" y="338" width="80" height="30" as="geometry" />
        </mxCell>
        <mxCell id="lLIFbovUc9EA7OUjyB9d-40" value="" style="endArrow=none;html=1;rounded=0;" parent="1" edge="1">
          <mxGeometry width="50" height="50" relative="1" as="geometry">
            <mxPoint x="160" y="298" as="sourcePoint" />
            <mxPoint x="480" y="298" as="targetPoint" />
          </mxGeometry>
        </mxCell>
        <mxCell id="lLIFbovUc9EA7OUjyB9d-41" value="Logic Link Frame" style="text;html=1;align=center;verticalAlign=middle;resizable=0;points=[];autosize=1;strokeColor=none;fillColor=none;" parent="1" vertex="1">
          <mxGeometry x="156" y="275" width="120" height="30" as="geometry" />
        </mxCell>
        <mxCell id="lLIFbovUc9EA7OUjyB9d-42" value="" style="verticalLabelPosition=bottom;shadow=0;dashed=0;align=center;html=1;verticalAlign=top;strokeWidth=1;shape=mxgraph.mockup.markup.curlyBrace;whiteSpace=wrap;strokeColor=#999999;" parent="1" vertex="1">
          <mxGeometry x="161" y="326" width="319" height="10" as="geometry" />
        </mxCell>
        <mxCell id="lLIFbovUc9EA7OUjyB9d-44" value="&lt;font style=&quot;font-size: 10px;&quot;&gt;UN&lt;/font&gt;" style="rounded=0;whiteSpace=wrap;html=1;fillColor=#d5e8d4;strokeColor=#82b366;" parent="1" vertex="1">
          <mxGeometry x="180" y="440" width="40" height="20" as="geometry" />
        </mxCell>
        <mxCell id="lLIFbovUc9EA7OUjyB9d-43" value="&lt;font style=&quot;font-size: 10px;&quot;&gt;HDR&lt;/font&gt;" style="rounded=0;whiteSpace=wrap;html=1;fillColor=#d5e8d4;strokeColor=#82b366;" parent="1" vertex="1">
          <mxGeometry x="140" y="440" width="40" height="20" as="geometry" />
        </mxCell>
        <mxCell id="lLIFbovUc9EA7OUjyB9d-49" value="" style="verticalLabelPosition=bottom;shadow=0;dashed=0;align=center;html=1;verticalAlign=top;strokeWidth=1;shape=mxgraph.mockup.markup.curlyBrace;whiteSpace=wrap;strokeColor=#999999;rotation=-180;" parent="1" vertex="1">
          <mxGeometry x="140" y="465" width="40" height="20" as="geometry" />
        </mxCell>
        <mxCell id="lLIFbovUc9EA7OUjyB9d-50" value="" style="verticalLabelPosition=bottom;shadow=0;dashed=0;align=center;html=1;verticalAlign=top;strokeWidth=1;shape=mxgraph.mockup.markup.curlyBrace;whiteSpace=wrap;strokeColor=#999999;rotation=-180;" parent="1" vertex="1">
          <mxGeometry x="180" y="466" width="40" height="18" as="geometry" />
        </mxCell>
        <mxCell id="lLIFbovUc9EA7OUjyB9d-51" value="&lt;blockquote style=&quot;margin: 0 0 0 40px; border: none; padding: 0px;&quot;&gt;&lt;span style=&quot;font-size: 10px;&quot;&gt;4b&lt;/span&gt;&lt;/blockquote&gt;" style="text;html=1;align=center;verticalAlign=middle;resizable=0;points=[];autosize=1;strokeColor=none;fillColor=none;" parent="1" vertex="1">
          <mxGeometry x="104" y="470" width="70" height="30" as="geometry" />
        </mxCell>
        <mxCell id="lLIFbovUc9EA7OUjyB9d-52" value="&lt;font style=&quot;font-size: 10px;&quot;&gt;220B&lt;/font&gt;" style="text;html=1;align=center;verticalAlign=middle;resizable=0;points=[];autosize=1;strokeColor=none;fillColor=none;" parent="1" vertex="1">
          <mxGeometry x="315" y="339" width="50" height="30" as="geometry" />
        </mxCell>
        <mxCell id="lLIFbovUc9EA7OUjyB9d-53" value="&lt;blockquote style=&quot;margin: 0 0 0 40px; border: none; padding: 0px;&quot;&gt;&lt;span style=&quot;font-size: 10px;&quot;&gt;4b&lt;/span&gt;&lt;/blockquote&gt;" style="text;html=1;align=center;verticalAlign=middle;resizable=0;points=[];autosize=1;strokeColor=none;fillColor=none;" parent="1" vertex="1">
          <mxGeometry x="144" y="470" width="70" height="30" as="geometry" />
        </mxCell>
        <mxCell id="lLIFbovUc9EA7OUjyB9d-56" value="&lt;font style=&quot;font-size: 10px;&quot;&gt;Network Frame&lt;/font&gt;" style="rounded=0;whiteSpace=wrap;html=1;fillColor=#fff2cc;strokeColor=#d6b656;" parent="1" vertex="1">
          <mxGeometry x="200" y="620" width="280" height="20" as="geometry" />
        </mxCell>
        <mxCell id="lLIFbovUc9EA7OUjyB9d-57" value="&lt;font style=&quot;font-size: 10px;&quot;&gt;ADDR&lt;/font&gt;" style="rounded=0;whiteSpace=wrap;html=1;fillColor=#dae8fc;strokeColor=#6c8ebf;" parent="1" vertex="1">
          <mxGeometry x="160" y="620" width="40" height="20" as="geometry" />
        </mxCell>
        <mxCell id="lLIFbovUc9EA7OUjyB9d-58" value="" style="verticalLabelPosition=bottom;shadow=0;dashed=0;align=center;html=1;verticalAlign=top;strokeWidth=1;shape=mxgraph.mockup.markup.curlyBrace;whiteSpace=wrap;strokeColor=#999999;" parent="1" vertex="1">
          <mxGeometry x="160" y="595" width="40" height="20" as="geometry" />
        </mxCell>
        <mxCell id="lLIFbovUc9EA7OUjyB9d-59" value="" style="verticalLabelPosition=bottom;shadow=0;dashed=0;align=center;html=1;verticalAlign=top;strokeWidth=1;shape=mxgraph.mockup.markup.curlyBrace;whiteSpace=wrap;strokeColor=#999999;" parent="1" vertex="1">
          <mxGeometry x="200" y="600" width="280" height="10" as="geometry" />
        </mxCell>
        <mxCell id="lLIFbovUc9EA7OUjyB9d-60" value="&lt;font style=&quot;font-size: 10px;&quot;&gt;220B&lt;/font&gt;" style="text;html=1;align=center;verticalAlign=middle;resizable=0;points=[];autosize=1;strokeColor=none;fillColor=none;" parent="1" vertex="1">
          <mxGeometry x="295" y="546" width="50" height="30" as="geometry" />
        </mxCell>
        <mxCell id="lLIFbovUc9EA7OUjyB9d-62" value="" style="endArrow=none;html=1;rounded=0;" parent="1" edge="1">
          <mxGeometry width="50" height="50" relative="1" as="geometry">
            <mxPoint x="160" y="539" as="sourcePoint" />
            <mxPoint x="480" y="539" as="targetPoint" />
          </mxGeometry>
        </mxCell>
        <mxCell id="lLIFbovUc9EA7OUjyB9d-63" value="&amp;nbsp;MAC (Medium Acess Control) Frame" style="text;html=1;align=left;verticalAlign=middle;resizable=0;points=[];autosize=1;strokeColor=none;fillColor=none;" parent="1" vertex="1">
          <mxGeometry x="164" y="516" width="220" height="30" as="geometry" />
        </mxCell>
        <mxCell id="lLIFbovUc9EA7OUjyB9d-64" value="" style="verticalLabelPosition=bottom;shadow=0;dashed=0;align=center;html=1;verticalAlign=top;strokeWidth=1;shape=mxgraph.mockup.markup.curlyBrace;whiteSpace=wrap;strokeColor=#999999;" parent="1" vertex="1">
          <mxGeometry x="161" y="567" width="319" height="10" as="geometry" />
        </mxCell>
        <mxCell id="lLIFbovUc9EA7OUjyB9d-70" value="&lt;font style=&quot;font-size: 10px;&quot;&gt;212B&lt;/font&gt;" style="text;html=1;align=center;verticalAlign=middle;resizable=0;points=[];autosize=1;strokeColor=none;fillColor=none;" parent="1" vertex="1">
          <mxGeometry x="315" y="579" width="50" height="30" as="geometry" />
        </mxCell>
        <mxCell id="lLIFbovUc9EA7OUjyB9d-73" value="&lt;font style=&quot;font-size: 10px;&quot;&gt;8B&lt;/font&gt;" style="text;html=1;align=center;verticalAlign=middle;resizable=0;points=[];autosize=1;strokeColor=none;fillColor=none;" parent="1" vertex="1">
          <mxGeometry x="160" y="579" width="40" height="30" as="geometry" />
        </mxCell>
        <mxCell id="lLIFbovUc9EA7OUjyB9d-76" value="&lt;font style=&quot;font-size: 10px;&quot;&gt;DST&lt;/font&gt;" style="rounded=0;whiteSpace=wrap;html=1;fillColor=#d5e8d4;strokeColor=#82b366;" parent="1" vertex="1">
          <mxGeometry x="180" y="680" width="40" height="20" as="geometry" />
        </mxCell>
        <mxCell id="lLIFbovUc9EA7OUjyB9d-77" value="&lt;font style=&quot;font-size: 10px;&quot;&gt;SRC&lt;/font&gt;" style="rounded=0;whiteSpace=wrap;html=1;fillColor=#d5e8d4;strokeColor=#82b366;" parent="1" vertex="1">
          <mxGeometry x="140" y="680" width="40" height="20" as="geometry" />
        </mxCell>
        <mxCell id="lLIFbovUc9EA7OUjyB9d-78" value="" style="verticalLabelPosition=bottom;shadow=0;dashed=0;align=center;html=1;verticalAlign=top;strokeWidth=1;shape=mxgraph.mockup.markup.curlyBrace;whiteSpace=wrap;strokeColor=#999999;rotation=-180;" parent="1" vertex="1">
          <mxGeometry x="140" y="705" width="40" height="20" as="geometry" />
        </mxCell>
        <mxCell id="lLIFbovUc9EA7OUjyB9d-79" value="" style="verticalLabelPosition=bottom;shadow=0;dashed=0;align=center;html=1;verticalAlign=top;strokeWidth=1;shape=mxgraph.mockup.markup.curlyBrace;whiteSpace=wrap;strokeColor=#999999;rotation=-180;" parent="1" vertex="1">
          <mxGeometry x="180" y="706" width="40" height="18" as="geometry" />
        </mxCell>
        <mxCell id="lLIFbovUc9EA7OUjyB9d-80" value="&lt;blockquote style=&quot;margin: 0 0 0 40px; border: none; padding: 0px;&quot;&gt;&lt;span style=&quot;font-size: 10px;&quot;&gt;4B&lt;/span&gt;&lt;/blockquote&gt;" style="text;html=1;align=center;verticalAlign=middle;resizable=0;points=[];autosize=1;strokeColor=none;fillColor=none;" parent="1" vertex="1">
          <mxGeometry x="99" y="710" width="80" height="30" as="geometry" />
        </mxCell>
        <mxCell id="lLIFbovUc9EA7OUjyB9d-102" value="&lt;span style=&quot;font-size: 10px;&quot;&gt;App Payload&lt;/span&gt;" style="rounded=0;whiteSpace=wrap;html=1;fillColor=#fff2cc;strokeColor=#d6b656;" parent="1" vertex="1">
          <mxGeometry x="240" y="864" width="240" height="20" as="geometry" />
        </mxCell>
        <mxCell id="lLIFbovUc9EA7OUjyB9d-103" value="CTRL" style="rounded=0;whiteSpace=wrap;html=1;fillColor=#dae8fc;strokeColor=#6c8ebf;" parent="1" vertex="1">
          <mxGeometry x="160" y="864" width="80" height="20" as="geometry" />
        </mxCell>
        <mxCell id="lLIFbovUc9EA7OUjyB9d-104" value="" style="verticalLabelPosition=bottom;shadow=0;dashed=0;align=center;html=1;verticalAlign=top;strokeWidth=1;shape=mxgraph.mockup.markup.curlyBrace;whiteSpace=wrap;strokeColor=#999999;" parent="1" vertex="1">
          <mxGeometry x="160" y="844" width="80" height="10" as="geometry" />
        </mxCell>
        <mxCell id="lLIFbovUc9EA7OUjyB9d-105" value="" style="verticalLabelPosition=bottom;shadow=0;dashed=0;align=center;html=1;verticalAlign=top;strokeWidth=1;shape=mxgraph.mockup.markup.curlyBrace;whiteSpace=wrap;strokeColor=#999999;" parent="1" vertex="1">
          <mxGeometry x="240" y="844" width="240" height="10" as="geometry" />
        </mxCell>
        <mxCell id="lLIFbovUc9EA7OUjyB9d-106" value="&lt;font style=&quot;font-size: 10px;&quot;&gt;212B&lt;/font&gt;" style="text;html=1;align=center;verticalAlign=middle;resizable=0;points=[];autosize=1;strokeColor=none;fillColor=none;" parent="1" vertex="1">
          <mxGeometry x="295" y="790" width="50" height="30" as="geometry" />
        </mxCell>
        <mxCell id="lLIFbovUc9EA7OUjyB9d-107" value="" style="endArrow=none;html=1;rounded=0;" parent="1" edge="1">
          <mxGeometry width="50" height="50" relative="1" as="geometry">
            <mxPoint x="160" y="783" as="sourcePoint" />
            <mxPoint x="480" y="783" as="targetPoint" />
          </mxGeometry>
        </mxCell>
        <mxCell id="lLIFbovUc9EA7OUjyB9d-108" value="Network Frame" style="text;html=1;align=left;verticalAlign=middle;resizable=0;points=[];autosize=1;strokeColor=none;fillColor=none;" parent="1" vertex="1">
          <mxGeometry x="164" y="760" width="110" height="30" as="geometry" />
        </mxCell>
        <mxCell id="lLIFbovUc9EA7OUjyB9d-109" value="" style="verticalLabelPosition=bottom;shadow=0;dashed=0;align=center;html=1;verticalAlign=top;strokeWidth=1;shape=mxgraph.mockup.markup.curlyBrace;whiteSpace=wrap;strokeColor=#999999;" parent="1" vertex="1">
          <mxGeometry x="161" y="811" width="319" height="10" as="geometry" />
        </mxCell>
        <mxCell id="lLIFbovUc9EA7OUjyB9d-110" value="&lt;font style=&quot;font-size: 10px;&quot;&gt;208B&lt;/font&gt;" style="text;html=1;align=center;verticalAlign=middle;resizable=0;points=[];autosize=1;strokeColor=none;fillColor=none;" parent="1" vertex="1">
          <mxGeometry x="336" y="821" width="50" height="30" as="geometry" />
        </mxCell>
        <mxCell id="lLIFbovUc9EA7OUjyB9d-111" value="&lt;font style=&quot;font-size: 10px;&quot;&gt;4B&lt;br&gt;&lt;/font&gt;" style="text;html=1;align=center;verticalAlign=middle;resizable=0;points=[];autosize=1;strokeColor=none;fillColor=none;" parent="1" vertex="1">
          <mxGeometry x="180" y="821" width="40" height="30" as="geometry" />
        </mxCell>
        <mxCell id="lLIFbovUc9EA7OUjyB9d-120" value="&lt;span style=&quot;font-size: 10px;&quot;&gt;Seq. Number&lt;/span&gt;" style="rounded=0;whiteSpace=wrap;html=1;fillColor=#d5e8d4;strokeColor=#82b366;" parent="1" vertex="1">
          <mxGeometry x="120" y="920" width="80" height="20" as="geometry" />
        </mxCell>
        <mxCell id="lLIFbovUc9EA7OUjyB9d-122" value="" style="verticalLabelPosition=bottom;shadow=0;dashed=0;align=center;html=1;verticalAlign=top;strokeWidth=1;shape=mxgraph.mockup.markup.curlyBrace;whiteSpace=wrap;strokeColor=#999999;rotation=-180;" parent="1" vertex="1">
          <mxGeometry x="120" y="950" width="80" height="10" as="geometry" />
        </mxCell>
        <mxCell id="lLIFbovUc9EA7OUjyB9d-123" value="&lt;span style=&quot;font-size: 10px;&quot;&gt;CHKS&lt;/span&gt;" style="rounded=0;whiteSpace=wrap;html=1;fillColor=#d5e8d4;strokeColor=#82b366;" parent="1" vertex="1">
          <mxGeometry x="240" y="920" width="40" height="20" as="geometry" />
        </mxCell>
        <mxCell id="lLIFbovUc9EA7OUjyB9d-124" value="&lt;font style=&quot;font-size: 10px;&quot;&gt;Flags&lt;/font&gt;" style="rounded=0;whiteSpace=wrap;html=1;fillColor=#d5e8d4;strokeColor=#82b366;" parent="1" vertex="1">
          <mxGeometry x="200" y="920" width="40" height="20" as="geometry" />
        </mxCell>
        <mxCell id="lLIFbovUc9EA7OUjyB9d-125" value="" style="verticalLabelPosition=bottom;shadow=0;dashed=0;align=center;html=1;verticalAlign=top;strokeWidth=1;shape=mxgraph.mockup.markup.curlyBrace;whiteSpace=wrap;strokeColor=#999999;rotation=-180;" parent="1" vertex="1">
          <mxGeometry x="200" y="945" width="40" height="20" as="geometry" />
        </mxCell>
        <mxCell id="lLIFbovUc9EA7OUjyB9d-126" value="" style="verticalLabelPosition=bottom;shadow=0;dashed=0;align=center;html=1;verticalAlign=top;strokeWidth=1;shape=mxgraph.mockup.markup.curlyBrace;whiteSpace=wrap;strokeColor=#999999;rotation=-180;" parent="1" vertex="1">
          <mxGeometry x="240" y="946" width="40" height="18" as="geometry" />
        </mxCell>
        <mxCell id="lLIFbovUc9EA7OUjyB9d-129" value="&lt;font style=&quot;font-size: 10px;&quot;&gt;2B&lt;br&gt;&lt;/font&gt;" style="text;html=1;align=center;verticalAlign=middle;resizable=0;points=[];autosize=1;strokeColor=none;fillColor=none;" parent="1" vertex="1">
          <mxGeometry x="140" y="950" width="40" height="30" as="geometry" />
        </mxCell>
        <mxCell id="lLIFbovUc9EA7OUjyB9d-130" value="&lt;font style=&quot;font-size: 10px;&quot;&gt;1B&lt;br&gt;&lt;/font&gt;" style="text;html=1;align=center;verticalAlign=middle;resizable=0;points=[];autosize=1;strokeColor=none;fillColor=none;" parent="1" vertex="1">
          <mxGeometry x="200" y="950" width="40" height="30" as="geometry" />
        </mxCell>
        <mxCell id="lLIFbovUc9EA7OUjyB9d-131" value="&lt;font style=&quot;font-size: 10px;&quot;&gt;1B&lt;br&gt;&lt;/font&gt;" style="text;html=1;align=center;verticalAlign=middle;resizable=0;points=[];autosize=1;strokeColor=none;fillColor=none;" parent="1" vertex="1">
          <mxGeometry x="240" y="950" width="40" height="30" as="geometry" />
        </mxCell>
        <mxCell id="uwoXXE7Tp4Z_2IsJhJSu-1" value="&lt;blockquote style=&quot;margin: 0 0 0 40px; border: none; padding: 0px;&quot;&gt;&lt;span style=&quot;font-size: 10px;&quot;&gt;4B&lt;/span&gt;&lt;/blockquote&gt;" style="text;html=1;align=center;verticalAlign=middle;resizable=0;points=[];autosize=1;strokeColor=none;fillColor=none;" parent="1" vertex="1">
          <mxGeometry x="139" y="711" width="80" height="30" as="geometry" />
        </mxCell>
      </root>
    </mxGraphModel>
  </diagram>
  <diagram id="_6PW1uDjn58ngpf3_Wr3" name="Timmings">
    <mxGraphModel dx="1195" dy="1825" grid="1" gridSize="10" guides="1" tooltips="1" connect="1" arrows="1" fold="1" page="1" pageScale="1" pageWidth="850" pageHeight="1100" math="0" shadow="0">
      <root>
        <mxCell id="0" />
        <mxCell id="1" parent="0" />
        <mxCell id="WFXZXQFnrCHP7xv1RBrU-180" value="" style="verticalLabelPosition=bottom;shadow=0;dashed=0;align=center;html=1;verticalAlign=top;strokeWidth=1;shape=mxgraph.mockup.markup.curlyBrace;whiteSpace=wrap;strokeColor=#999999;" parent="1" vertex="1">
          <mxGeometry x="280" y="80" width="400" height="20" as="geometry" />
        </mxCell>
        <mxCell id="WFXZXQFnrCHP7xv1RBrU-181" value="" style="verticalLabelPosition=bottom;shadow=0;dashed=0;align=center;html=1;verticalAlign=top;strokeWidth=1;shape=mxgraph.mockup.markup.curlyBrace;whiteSpace=wrap;strokeColor=#999999;" parent="1" vertex="1">
          <mxGeometry x="280" y="105" width="40" height="20" as="geometry" />
        </mxCell>
        <mxCell id="WFXZXQFnrCHP7xv1RBrU-183" value="1 TS" style="text;html=1;align=center;verticalAlign=middle;resizable=0;points=[];autosize=1;strokeColor=none;fillColor=none;" parent="1" vertex="1">
          <mxGeometry x="274" y="89" width="50" height="30" as="geometry" />
        </mxCell>
        <mxCell id="WFXZXQFnrCHP7xv1RBrU-184" value="10 TS" style="text;html=1;align=center;verticalAlign=middle;resizable=0;points=[];autosize=1;strokeColor=none;fillColor=none;" parent="1" vertex="1">
          <mxGeometry x="450" y="59" width="60" height="30" as="geometry" />
        </mxCell>
        <mxCell id="WFXZXQFnrCHP7xv1RBrU-185" value="TS -&amp;gt; Time Slice" style="text;html=1;align=center;verticalAlign=middle;resizable=0;points=[];autosize=1;strokeColor=none;fillColor=none;" parent="1" vertex="1">
          <mxGeometry x="150" y="-70" width="110" height="30" as="geometry" />
        </mxCell>
        <mxCell id="WFXZXQFnrCHP7xv1RBrU-186" value="" style="rounded=0;whiteSpace=wrap;html=1;fillColor=#d5e8d4;strokeColor=#82b366;" parent="1" vertex="1">
          <mxGeometry x="160" y="-35" width="40" height="20" as="geometry" />
        </mxCell>
        <mxCell id="WFXZXQFnrCHP7xv1RBrU-187" value="Device free to transmit" style="text;html=1;align=left;verticalAlign=middle;resizable=0;points=[];autosize=1;strokeColor=none;fillColor=none;" parent="1" vertex="1">
          <mxGeometry x="240" y="-40" width="140" height="30" as="geometry" />
        </mxCell>
        <mxCell id="WFXZXQFnrCHP7xv1RBrU-188" value="" style="rounded=0;whiteSpace=wrap;html=1;fillColor=#f8cecc;strokeColor=#b85450;" parent="1" vertex="1">
          <mxGeometry x="160" y="-5" width="40" height="20" as="geometry" />
        </mxCell>
        <mxCell id="WFXZXQFnrCHP7xv1RBrU-189" value="Device forbidden to transmit" style="text;html=1;align=left;verticalAlign=middle;resizable=0;points=[];autosize=1;strokeColor=none;fillColor=none;" parent="1" vertex="1">
          <mxGeometry x="240" y="-11" width="170" height="30" as="geometry" />
        </mxCell>
        <mxCell id="WFXZXQFnrCHP7xv1RBrU-190" value="" style="rounded=0;whiteSpace=wrap;html=1;fillColor=#fff2cc;strokeColor=#d6b656;" parent="1" vertex="1">
          <mxGeometry x="160" y="24" width="40" height="20" as="geometry" />
        </mxCell>
        <mxCell id="WFXZXQFnrCHP7xv1RBrU-191" value="Several devices can transmit" style="text;html=1;align=left;verticalAlign=middle;resizable=0;points=[];autosize=1;strokeColor=none;fillColor=none;" parent="1" vertex="1">
          <mxGeometry x="240" y="19" width="180" height="30" as="geometry" />
        </mxCell>
        <mxCell id="WFXZXQFnrCHP7xv1RBrU-193" style="edgeStyle=orthogonalEdgeStyle;rounded=0;orthogonalLoop=1;jettySize=auto;html=1;entryX=-0.01;entryY=0.526;entryDx=0;entryDy=0;entryPerimeter=0;" parent="1" source="WFXZXQFnrCHP7xv1RBrU-188" target="WFXZXQFnrCHP7xv1RBrU-189" edge="1">
          <mxGeometry relative="1" as="geometry" />
        </mxCell>
        <mxCell id="WFXZXQFnrCHP7xv1RBrU-194" style="edgeStyle=orthogonalEdgeStyle;rounded=0;orthogonalLoop=1;jettySize=auto;html=1;entryX=-0.002;entryY=0.513;entryDx=0;entryDy=0;entryPerimeter=0;" parent="1" source="WFXZXQFnrCHP7xv1RBrU-190" target="WFXZXQFnrCHP7xv1RBrU-191" edge="1">
          <mxGeometry relative="1" as="geometry" />
        </mxCell>
        <mxCell id="WFXZXQFnrCHP7xv1RBrU-195" style="edgeStyle=orthogonalEdgeStyle;rounded=0;orthogonalLoop=1;jettySize=auto;html=1;entryX=-0.011;entryY=0.512;entryDx=0;entryDy=0;entryPerimeter=0;" parent="1" source="WFXZXQFnrCHP7xv1RBrU-186" target="WFXZXQFnrCHP7xv1RBrU-187" edge="1">
          <mxGeometry relative="1" as="geometry" />
        </mxCell>
        <mxCell id="6m_CiA1ZFj7QNIabP0qD-1" value="Control Box" style="rounded=0;whiteSpace=wrap;html=1;fillColor=#f5f5f5;strokeColor=#666666;fontColor=#333333;" vertex="1" parent="1">
          <mxGeometry x="160" y="140" width="80" height="20" as="geometry" />
        </mxCell>
        <mxCell id="6m_CiA1ZFj7QNIabP0qD-2" value="Broadcast" style="rounded=0;whiteSpace=wrap;html=1;fillColor=#dae8fc;strokeColor=#6c8ebf;" vertex="1" parent="1">
          <mxGeometry x="160" y="180" width="80" height="20" as="geometry" />
        </mxCell>
        <mxCell id="6m_CiA1ZFj7QNIabP0qD-3" value="" style="rounded=0;whiteSpace=wrap;html=1;fillColor=#f8cecc;strokeColor=#b85450;" vertex="1" parent="1">
          <mxGeometry x="280" y="180" width="40" height="20" as="geometry" />
        </mxCell>
        <mxCell id="6m_CiA1ZFj7QNIabP0qD-4" value="" style="rounded=0;whiteSpace=wrap;html=1;fillColor=#fff2cc;strokeColor=#d6b656;" vertex="1" parent="1">
          <mxGeometry x="320" y="180" width="40" height="20" as="geometry" />
        </mxCell>
        <mxCell id="6m_CiA1ZFj7QNIabP0qD-5" value="" style="rounded=0;whiteSpace=wrap;html=1;fillColor=#f8cecc;strokeColor=#b85450;" vertex="1" parent="1">
          <mxGeometry x="360" y="180" width="40" height="20" as="geometry" />
        </mxCell>
        <mxCell id="6m_CiA1ZFj7QNIabP0qD-6" value="" style="rounded=0;whiteSpace=wrap;html=1;fillColor=#f8cecc;strokeColor=#b85450;" vertex="1" parent="1">
          <mxGeometry x="400" y="180" width="40" height="20" as="geometry" />
        </mxCell>
        <mxCell id="6m_CiA1ZFj7QNIabP0qD-7" value="" style="rounded=0;whiteSpace=wrap;html=1;fillColor=#f8cecc;strokeColor=#b85450;" vertex="1" parent="1">
          <mxGeometry x="440" y="180" width="40" height="20" as="geometry" />
        </mxCell>
        <mxCell id="6m_CiA1ZFj7QNIabP0qD-8" value="" style="rounded=0;whiteSpace=wrap;html=1;fillColor=#f8cecc;strokeColor=#b85450;" vertex="1" parent="1">
          <mxGeometry x="480" y="180" width="40" height="20" as="geometry" />
        </mxCell>
        <mxCell id="6m_CiA1ZFj7QNIabP0qD-9" value="" style="rounded=0;whiteSpace=wrap;html=1;fillColor=#f8cecc;strokeColor=#b85450;" vertex="1" parent="1">
          <mxGeometry x="520" y="180" width="40" height="20" as="geometry" />
        </mxCell>
        <mxCell id="6m_CiA1ZFj7QNIabP0qD-10" value="" style="rounded=0;whiteSpace=wrap;html=1;fillColor=#f8cecc;strokeColor=#b85450;" vertex="1" parent="1">
          <mxGeometry x="560" y="180" width="40" height="20" as="geometry" />
        </mxCell>
        <mxCell id="6m_CiA1ZFj7QNIabP0qD-11" value="" style="rounded=0;whiteSpace=wrap;html=1;fillColor=#f8cecc;strokeColor=#b85450;" vertex="1" parent="1">
          <mxGeometry x="600" y="180" width="40" height="20" as="geometry" />
        </mxCell>
        <mxCell id="6m_CiA1ZFj7QNIabP0qD-12" value="" style="rounded=0;whiteSpace=wrap;html=1;fillColor=#f8cecc;strokeColor=#b85450;" vertex="1" parent="1">
          <mxGeometry x="640" y="180" width="40" height="20" as="geometry" />
        </mxCell>
        <mxCell id="6m_CiA1ZFj7QNIabP0qD-13" value="" style="rounded=0;whiteSpace=wrap;html=1;fillColor=#d5e8d4;strokeColor=#82b366;" vertex="1" parent="1">
          <mxGeometry x="280" y="140" width="40" height="20" as="geometry" />
        </mxCell>
        <mxCell id="6m_CiA1ZFj7QNIabP0qD-14" value="" style="rounded=0;whiteSpace=wrap;html=1;fillColor=#f8cecc;strokeColor=#b85450;" vertex="1" parent="1">
          <mxGeometry x="320" y="140" width="40" height="20" as="geometry" />
        </mxCell>
        <mxCell id="6m_CiA1ZFj7QNIabP0qD-15" value="" style="rounded=0;whiteSpace=wrap;html=1;fillColor=#f8cecc;strokeColor=#b85450;" vertex="1" parent="1">
          <mxGeometry x="360" y="140" width="40" height="20" as="geometry" />
        </mxCell>
        <mxCell id="6m_CiA1ZFj7QNIabP0qD-16" value="" style="rounded=0;whiteSpace=wrap;html=1;fillColor=#f8cecc;strokeColor=#b85450;" vertex="1" parent="1">
          <mxGeometry x="400" y="140" width="40" height="20" as="geometry" />
        </mxCell>
        <mxCell id="6m_CiA1ZFj7QNIabP0qD-17" value="" style="rounded=0;whiteSpace=wrap;html=1;fillColor=#f8cecc;strokeColor=#b85450;" vertex="1" parent="1">
          <mxGeometry x="440" y="140" width="40" height="20" as="geometry" />
        </mxCell>
        <mxCell id="6m_CiA1ZFj7QNIabP0qD-18" value="" style="rounded=0;whiteSpace=wrap;html=1;fillColor=#f8cecc;strokeColor=#b85450;" vertex="1" parent="1">
          <mxGeometry x="480" y="140" width="40" height="20" as="geometry" />
        </mxCell>
        <mxCell id="6m_CiA1ZFj7QNIabP0qD-19" value="" style="rounded=0;whiteSpace=wrap;html=1;fillColor=#f8cecc;strokeColor=#b85450;" vertex="1" parent="1">
          <mxGeometry x="520" y="140" width="40" height="20" as="geometry" />
        </mxCell>
        <mxCell id="6m_CiA1ZFj7QNIabP0qD-20" value="" style="rounded=0;whiteSpace=wrap;html=1;fillColor=#f8cecc;strokeColor=#b85450;" vertex="1" parent="1">
          <mxGeometry x="560" y="140" width="40" height="20" as="geometry" />
        </mxCell>
        <mxCell id="6m_CiA1ZFj7QNIabP0qD-21" value="" style="rounded=0;whiteSpace=wrap;html=1;fillColor=#f8cecc;strokeColor=#b85450;" vertex="1" parent="1">
          <mxGeometry x="600" y="140" width="40" height="20" as="geometry" />
        </mxCell>
        <mxCell id="6m_CiA1ZFj7QNIabP0qD-22" value="" style="rounded=0;whiteSpace=wrap;html=1;fillColor=#f8cecc;strokeColor=#b85450;" vertex="1" parent="1">
          <mxGeometry x="640" y="140" width="40" height="20" as="geometry" />
        </mxCell>
        <mxCell id="6m_CiA1ZFj7QNIabP0qD-23" value="Station 0" style="rounded=0;whiteSpace=wrap;html=1;fillColor=#f5f5f5;strokeColor=#666666;fontColor=#333333;" vertex="1" parent="1">
          <mxGeometry x="160" y="220" width="80" height="20" as="geometry" />
        </mxCell>
        <mxCell id="6m_CiA1ZFj7QNIabP0qD-24" value="Station 1" style="rounded=0;whiteSpace=wrap;html=1;fillColor=#dae8fc;strokeColor=#6c8ebf;" vertex="1" parent="1">
          <mxGeometry x="160" y="260" width="80" height="20" as="geometry" />
        </mxCell>
        <mxCell id="6m_CiA1ZFj7QNIabP0qD-25" value="Station 2" style="rounded=0;whiteSpace=wrap;html=1;fillColor=#f5f5f5;strokeColor=#666666;fontColor=#333333;" vertex="1" parent="1">
          <mxGeometry x="160" y="300" width="80" height="20" as="geometry" />
        </mxCell>
        <mxCell id="6m_CiA1ZFj7QNIabP0qD-26" value="Station 3" style="rounded=0;whiteSpace=wrap;html=1;fillColor=#dae8fc;strokeColor=#6c8ebf;" vertex="1" parent="1">
          <mxGeometry x="160" y="340" width="80" height="20" as="geometry" />
        </mxCell>
        <mxCell id="6m_CiA1ZFj7QNIabP0qD-27" value="Station 4" style="rounded=0;whiteSpace=wrap;html=1;fillColor=#f5f5f5;strokeColor=#666666;fontColor=#333333;" vertex="1" parent="1">
          <mxGeometry x="160" y="380" width="80" height="20" as="geometry" />
        </mxCell>
        <mxCell id="6m_CiA1ZFj7QNIabP0qD-28" value="Station 5" style="rounded=0;whiteSpace=wrap;html=1;fillColor=#dae8fc;strokeColor=#6c8ebf;" vertex="1" parent="1">
          <mxGeometry x="160" y="420" width="80" height="20" as="geometry" />
        </mxCell>
        <mxCell id="6m_CiA1ZFj7QNIabP0qD-29" value="Station 6" style="rounded=0;whiteSpace=wrap;html=1;fillColor=#f5f5f5;strokeColor=#666666;fontColor=#333333;" vertex="1" parent="1">
          <mxGeometry x="160" y="460" width="80" height="20" as="geometry" />
        </mxCell>
        <mxCell id="6m_CiA1ZFj7QNIabP0qD-30" value="Station 7" style="rounded=0;whiteSpace=wrap;html=1;fillColor=#dae8fc;strokeColor=#6c8ebf;" vertex="1" parent="1">
          <mxGeometry x="160" y="500" width="80" height="20" as="geometry" />
        </mxCell>
        <mxCell id="6m_CiA1ZFj7QNIabP0qD-31" value="" style="rounded=0;whiteSpace=wrap;html=1;fillColor=#f8cecc;strokeColor=#b85450;" vertex="1" parent="1">
          <mxGeometry x="280" y="260" width="40" height="20" as="geometry" />
        </mxCell>
        <mxCell id="6m_CiA1ZFj7QNIabP0qD-32" value="" style="rounded=0;whiteSpace=wrap;html=1;fillColor=#f8cecc;strokeColor=#b85450;" vertex="1" parent="1">
          <mxGeometry x="320" y="260" width="40" height="20" as="geometry" />
        </mxCell>
        <mxCell id="6m_CiA1ZFj7QNIabP0qD-33" value="" style="rounded=0;whiteSpace=wrap;html=1;fillColor=#f8cecc;strokeColor=#b85450;" vertex="1" parent="1">
          <mxGeometry x="360" y="260" width="40" height="20" as="geometry" />
        </mxCell>
        <mxCell id="6m_CiA1ZFj7QNIabP0qD-34" value="" style="rounded=0;whiteSpace=wrap;html=1;fillColor=#d5e8d4;strokeColor=#82b366;" vertex="1" parent="1">
          <mxGeometry x="400" y="260" width="40" height="20" as="geometry" />
        </mxCell>
        <mxCell id="6m_CiA1ZFj7QNIabP0qD-35" value="" style="rounded=0;whiteSpace=wrap;html=1;fillColor=#f8cecc;strokeColor=#b85450;" vertex="1" parent="1">
          <mxGeometry x="440" y="260" width="40" height="20" as="geometry" />
        </mxCell>
        <mxCell id="6m_CiA1ZFj7QNIabP0qD-36" value="" style="rounded=0;whiteSpace=wrap;html=1;fillColor=#f8cecc;strokeColor=#b85450;" vertex="1" parent="1">
          <mxGeometry x="480" y="260" width="40" height="20" as="geometry" />
        </mxCell>
        <mxCell id="6m_CiA1ZFj7QNIabP0qD-37" value="" style="rounded=0;whiteSpace=wrap;html=1;fillColor=#f8cecc;strokeColor=#b85450;" vertex="1" parent="1">
          <mxGeometry x="520" y="260" width="40" height="20" as="geometry" />
        </mxCell>
        <mxCell id="6m_CiA1ZFj7QNIabP0qD-38" value="" style="rounded=0;whiteSpace=wrap;html=1;fillColor=#f8cecc;strokeColor=#b85450;" vertex="1" parent="1">
          <mxGeometry x="560" y="260" width="40" height="20" as="geometry" />
        </mxCell>
        <mxCell id="6m_CiA1ZFj7QNIabP0qD-39" value="" style="rounded=0;whiteSpace=wrap;html=1;fillColor=#f8cecc;strokeColor=#b85450;" vertex="1" parent="1">
          <mxGeometry x="600" y="260" width="40" height="20" as="geometry" />
        </mxCell>
        <mxCell id="6m_CiA1ZFj7QNIabP0qD-40" value="" style="rounded=0;whiteSpace=wrap;html=1;fillColor=#f8cecc;strokeColor=#b85450;" vertex="1" parent="1">
          <mxGeometry x="640" y="260" width="40" height="20" as="geometry" />
        </mxCell>
        <mxCell id="6m_CiA1ZFj7QNIabP0qD-41" value="" style="rounded=0;whiteSpace=wrap;html=1;fillColor=#f8cecc;strokeColor=#b85450;" vertex="1" parent="1">
          <mxGeometry x="280" y="220" width="40" height="20" as="geometry" />
        </mxCell>
        <mxCell id="6m_CiA1ZFj7QNIabP0qD-42" value="" style="rounded=0;whiteSpace=wrap;html=1;fillColor=#f8cecc;strokeColor=#b85450;" vertex="1" parent="1">
          <mxGeometry x="320" y="220" width="40" height="20" as="geometry" />
        </mxCell>
        <mxCell id="6m_CiA1ZFj7QNIabP0qD-43" value="" style="rounded=0;whiteSpace=wrap;html=1;fillColor=#d5e8d4;strokeColor=#82b366;" vertex="1" parent="1">
          <mxGeometry x="360" y="220" width="40" height="20" as="geometry" />
        </mxCell>
        <mxCell id="6m_CiA1ZFj7QNIabP0qD-44" value="" style="rounded=0;whiteSpace=wrap;html=1;fillColor=#f8cecc;strokeColor=#b85450;" vertex="1" parent="1">
          <mxGeometry x="400" y="220" width="40" height="20" as="geometry" />
        </mxCell>
        <mxCell id="6m_CiA1ZFj7QNIabP0qD-45" value="" style="rounded=0;whiteSpace=wrap;html=1;fillColor=#f8cecc;strokeColor=#b85450;" vertex="1" parent="1">
          <mxGeometry x="440" y="220" width="40" height="20" as="geometry" />
        </mxCell>
        <mxCell id="6m_CiA1ZFj7QNIabP0qD-46" value="" style="rounded=0;whiteSpace=wrap;html=1;fillColor=#f8cecc;strokeColor=#b85450;" vertex="1" parent="1">
          <mxGeometry x="480" y="220" width="40" height="20" as="geometry" />
        </mxCell>
        <mxCell id="6m_CiA1ZFj7QNIabP0qD-47" value="" style="rounded=0;whiteSpace=wrap;html=1;fillColor=#f8cecc;strokeColor=#b85450;" vertex="1" parent="1">
          <mxGeometry x="520" y="220" width="40" height="20" as="geometry" />
        </mxCell>
        <mxCell id="6m_CiA1ZFj7QNIabP0qD-48" value="" style="rounded=0;whiteSpace=wrap;html=1;fillColor=#f8cecc;strokeColor=#b85450;" vertex="1" parent="1">
          <mxGeometry x="560" y="220" width="40" height="20" as="geometry" />
        </mxCell>
        <mxCell id="6m_CiA1ZFj7QNIabP0qD-49" value="" style="rounded=0;whiteSpace=wrap;html=1;fillColor=#f8cecc;strokeColor=#b85450;" vertex="1" parent="1">
          <mxGeometry x="600" y="220" width="40" height="20" as="geometry" />
        </mxCell>
        <mxCell id="6m_CiA1ZFj7QNIabP0qD-50" value="" style="rounded=0;whiteSpace=wrap;html=1;fillColor=#f8cecc;strokeColor=#b85450;" vertex="1" parent="1">
          <mxGeometry x="640" y="220" width="40" height="20" as="geometry" />
        </mxCell>
        <mxCell id="6m_CiA1ZFj7QNIabP0qD-51" value="" style="rounded=0;whiteSpace=wrap;html=1;fillColor=#f8cecc;strokeColor=#b85450;" vertex="1" parent="1">
          <mxGeometry x="280" y="340" width="40" height="20" as="geometry" />
        </mxCell>
        <mxCell id="6m_CiA1ZFj7QNIabP0qD-52" value="" style="rounded=0;whiteSpace=wrap;html=1;fillColor=#f8cecc;strokeColor=#b85450;" vertex="1" parent="1">
          <mxGeometry x="320" y="340" width="40" height="20" as="geometry" />
        </mxCell>
        <mxCell id="6m_CiA1ZFj7QNIabP0qD-53" value="" style="rounded=0;whiteSpace=wrap;html=1;fillColor=#f8cecc;strokeColor=#b85450;" vertex="1" parent="1">
          <mxGeometry x="360" y="340" width="40" height="20" as="geometry" />
        </mxCell>
        <mxCell id="6m_CiA1ZFj7QNIabP0qD-54" value="" style="rounded=0;whiteSpace=wrap;html=1;fillColor=#f8cecc;strokeColor=#b85450;" vertex="1" parent="1">
          <mxGeometry x="400" y="340" width="40" height="20" as="geometry" />
        </mxCell>
        <mxCell id="6m_CiA1ZFj7QNIabP0qD-55" value="" style="rounded=0;whiteSpace=wrap;html=1;fillColor=#f8cecc;strokeColor=#b85450;" vertex="1" parent="1">
          <mxGeometry x="440" y="340" width="40" height="20" as="geometry" />
        </mxCell>
        <mxCell id="6m_CiA1ZFj7QNIabP0qD-56" value="" style="rounded=0;whiteSpace=wrap;html=1;fillColor=#d5e8d4;strokeColor=#82b366;" vertex="1" parent="1">
          <mxGeometry x="480" y="340" width="40" height="20" as="geometry" />
        </mxCell>
        <mxCell id="6m_CiA1ZFj7QNIabP0qD-57" value="" style="rounded=0;whiteSpace=wrap;html=1;fillColor=#f8cecc;strokeColor=#b85450;" vertex="1" parent="1">
          <mxGeometry x="520" y="340" width="40" height="20" as="geometry" />
        </mxCell>
        <mxCell id="6m_CiA1ZFj7QNIabP0qD-58" value="" style="rounded=0;whiteSpace=wrap;html=1;fillColor=#f8cecc;strokeColor=#b85450;" vertex="1" parent="1">
          <mxGeometry x="560" y="340" width="40" height="20" as="geometry" />
        </mxCell>
        <mxCell id="6m_CiA1ZFj7QNIabP0qD-59" value="" style="rounded=0;whiteSpace=wrap;html=1;fillColor=#f8cecc;strokeColor=#b85450;" vertex="1" parent="1">
          <mxGeometry x="600" y="340" width="40" height="20" as="geometry" />
        </mxCell>
        <mxCell id="6m_CiA1ZFj7QNIabP0qD-60" value="" style="rounded=0;whiteSpace=wrap;html=1;fillColor=#f8cecc;strokeColor=#b85450;" vertex="1" parent="1">
          <mxGeometry x="640" y="340" width="40" height="20" as="geometry" />
        </mxCell>
        <mxCell id="6m_CiA1ZFj7QNIabP0qD-61" value="" style="rounded=0;whiteSpace=wrap;html=1;fillColor=#f8cecc;strokeColor=#b85450;" vertex="1" parent="1">
          <mxGeometry x="280" y="300" width="40" height="20" as="geometry" />
        </mxCell>
        <mxCell id="6m_CiA1ZFj7QNIabP0qD-62" value="" style="rounded=0;whiteSpace=wrap;html=1;fillColor=#f8cecc;strokeColor=#b85450;" vertex="1" parent="1">
          <mxGeometry x="320" y="300" width="40" height="20" as="geometry" />
        </mxCell>
        <mxCell id="6m_CiA1ZFj7QNIabP0qD-63" value="" style="rounded=0;whiteSpace=wrap;html=1;fillColor=#f8cecc;strokeColor=#b85450;" vertex="1" parent="1">
          <mxGeometry x="360" y="300" width="40" height="20" as="geometry" />
        </mxCell>
        <mxCell id="6m_CiA1ZFj7QNIabP0qD-64" value="" style="rounded=0;whiteSpace=wrap;html=1;fillColor=#f8cecc;strokeColor=#b85450;" vertex="1" parent="1">
          <mxGeometry x="400" y="300" width="40" height="20" as="geometry" />
        </mxCell>
        <mxCell id="6m_CiA1ZFj7QNIabP0qD-65" value="" style="rounded=0;whiteSpace=wrap;html=1;fillColor=#d5e8d4;strokeColor=#82b366;" vertex="1" parent="1">
          <mxGeometry x="440" y="300" width="40" height="20" as="geometry" />
        </mxCell>
        <mxCell id="6m_CiA1ZFj7QNIabP0qD-66" value="" style="rounded=0;whiteSpace=wrap;html=1;fillColor=#f8cecc;strokeColor=#b85450;" vertex="1" parent="1">
          <mxGeometry x="480" y="300" width="40" height="20" as="geometry" />
        </mxCell>
        <mxCell id="6m_CiA1ZFj7QNIabP0qD-67" value="" style="rounded=0;whiteSpace=wrap;html=1;fillColor=#f8cecc;strokeColor=#b85450;" vertex="1" parent="1">
          <mxGeometry x="520" y="300" width="40" height="20" as="geometry" />
        </mxCell>
        <mxCell id="6m_CiA1ZFj7QNIabP0qD-68" value="" style="rounded=0;whiteSpace=wrap;html=1;fillColor=#f8cecc;strokeColor=#b85450;" vertex="1" parent="1">
          <mxGeometry x="560" y="300" width="40" height="20" as="geometry" />
        </mxCell>
        <mxCell id="6m_CiA1ZFj7QNIabP0qD-69" value="" style="rounded=0;whiteSpace=wrap;html=1;fillColor=#f8cecc;strokeColor=#b85450;" vertex="1" parent="1">
          <mxGeometry x="600" y="300" width="40" height="20" as="geometry" />
        </mxCell>
        <mxCell id="6m_CiA1ZFj7QNIabP0qD-70" value="" style="rounded=0;whiteSpace=wrap;html=1;fillColor=#f8cecc;strokeColor=#b85450;" vertex="1" parent="1">
          <mxGeometry x="640" y="300" width="40" height="20" as="geometry" />
        </mxCell>
        <mxCell id="6m_CiA1ZFj7QNIabP0qD-71" value="" style="rounded=0;whiteSpace=wrap;html=1;fillColor=#f8cecc;strokeColor=#b85450;" vertex="1" parent="1">
          <mxGeometry x="280" y="420" width="40" height="20" as="geometry" />
        </mxCell>
        <mxCell id="6m_CiA1ZFj7QNIabP0qD-72" value="" style="rounded=0;whiteSpace=wrap;html=1;fillColor=#f8cecc;strokeColor=#b85450;" vertex="1" parent="1">
          <mxGeometry x="320" y="420" width="40" height="20" as="geometry" />
        </mxCell>
        <mxCell id="6m_CiA1ZFj7QNIabP0qD-73" value="" style="rounded=0;whiteSpace=wrap;html=1;fillColor=#f8cecc;strokeColor=#b85450;" vertex="1" parent="1">
          <mxGeometry x="360" y="420" width="40" height="20" as="geometry" />
        </mxCell>
        <mxCell id="6m_CiA1ZFj7QNIabP0qD-74" value="" style="rounded=0;whiteSpace=wrap;html=1;fillColor=#f8cecc;strokeColor=#b85450;" vertex="1" parent="1">
          <mxGeometry x="400" y="420" width="40" height="20" as="geometry" />
        </mxCell>
        <mxCell id="6m_CiA1ZFj7QNIabP0qD-75" value="" style="rounded=0;whiteSpace=wrap;html=1;fillColor=#f8cecc;strokeColor=#b85450;" vertex="1" parent="1">
          <mxGeometry x="440" y="420" width="40" height="20" as="geometry" />
        </mxCell>
        <mxCell id="6m_CiA1ZFj7QNIabP0qD-76" value="" style="rounded=0;whiteSpace=wrap;html=1;fillColor=#f8cecc;strokeColor=#b85450;" vertex="1" parent="1">
          <mxGeometry x="480" y="420" width="40" height="20" as="geometry" />
        </mxCell>
        <mxCell id="6m_CiA1ZFj7QNIabP0qD-77" value="" style="rounded=0;whiteSpace=wrap;html=1;fillColor=#f8cecc;strokeColor=#b85450;" vertex="1" parent="1">
          <mxGeometry x="520" y="420" width="40" height="20" as="geometry" />
        </mxCell>
        <mxCell id="6m_CiA1ZFj7QNIabP0qD-78" value="" style="rounded=0;whiteSpace=wrap;html=1;fillColor=#d5e8d4;strokeColor=#82b366;" vertex="1" parent="1">
          <mxGeometry x="560" y="420" width="40" height="20" as="geometry" />
        </mxCell>
        <mxCell id="6m_CiA1ZFj7QNIabP0qD-79" value="" style="rounded=0;whiteSpace=wrap;html=1;fillColor=#f8cecc;strokeColor=#b85450;" vertex="1" parent="1">
          <mxGeometry x="600" y="420" width="40" height="20" as="geometry" />
        </mxCell>
        <mxCell id="6m_CiA1ZFj7QNIabP0qD-80" value="" style="rounded=0;whiteSpace=wrap;html=1;fillColor=#f8cecc;strokeColor=#b85450;" vertex="1" parent="1">
          <mxGeometry x="640" y="420" width="40" height="20" as="geometry" />
        </mxCell>
        <mxCell id="6m_CiA1ZFj7QNIabP0qD-81" value="" style="rounded=0;whiteSpace=wrap;html=1;fillColor=#f8cecc;strokeColor=#b85450;" vertex="1" parent="1">
          <mxGeometry x="280" y="380" width="40" height="20" as="geometry" />
        </mxCell>
        <mxCell id="6m_CiA1ZFj7QNIabP0qD-82" value="" style="rounded=0;whiteSpace=wrap;html=1;fillColor=#f8cecc;strokeColor=#b85450;" vertex="1" parent="1">
          <mxGeometry x="320" y="380" width="40" height="20" as="geometry" />
        </mxCell>
        <mxCell id="6m_CiA1ZFj7QNIabP0qD-83" value="" style="rounded=0;whiteSpace=wrap;html=1;fillColor=#f8cecc;strokeColor=#b85450;" vertex="1" parent="1">
          <mxGeometry x="360" y="380" width="40" height="20" as="geometry" />
        </mxCell>
        <mxCell id="6m_CiA1ZFj7QNIabP0qD-84" value="" style="rounded=0;whiteSpace=wrap;html=1;fillColor=#f8cecc;strokeColor=#b85450;" vertex="1" parent="1">
          <mxGeometry x="400" y="380" width="40" height="20" as="geometry" />
        </mxCell>
        <mxCell id="6m_CiA1ZFj7QNIabP0qD-85" value="" style="rounded=0;whiteSpace=wrap;html=1;fillColor=#f8cecc;strokeColor=#b85450;" vertex="1" parent="1">
          <mxGeometry x="440" y="380" width="40" height="20" as="geometry" />
        </mxCell>
        <mxCell id="6m_CiA1ZFj7QNIabP0qD-86" value="" style="rounded=0;whiteSpace=wrap;html=1;fillColor=#f8cecc;strokeColor=#b85450;" vertex="1" parent="1">
          <mxGeometry x="480" y="380" width="40" height="20" as="geometry" />
        </mxCell>
        <mxCell id="6m_CiA1ZFj7QNIabP0qD-87" value="" style="rounded=0;whiteSpace=wrap;html=1;fillColor=#d5e8d4;strokeColor=#82b366;" vertex="1" parent="1">
          <mxGeometry x="520" y="380" width="40" height="20" as="geometry" />
        </mxCell>
        <mxCell id="6m_CiA1ZFj7QNIabP0qD-88" value="" style="rounded=0;whiteSpace=wrap;html=1;fillColor=#f8cecc;strokeColor=#b85450;" vertex="1" parent="1">
          <mxGeometry x="560" y="380" width="40" height="20" as="geometry" />
        </mxCell>
        <mxCell id="6m_CiA1ZFj7QNIabP0qD-89" value="" style="rounded=0;whiteSpace=wrap;html=1;fillColor=#f8cecc;strokeColor=#b85450;" vertex="1" parent="1">
          <mxGeometry x="600" y="380" width="40" height="20" as="geometry" />
        </mxCell>
        <mxCell id="6m_CiA1ZFj7QNIabP0qD-90" value="" style="rounded=0;whiteSpace=wrap;html=1;fillColor=#f8cecc;strokeColor=#b85450;" vertex="1" parent="1">
          <mxGeometry x="640" y="380" width="40" height="20" as="geometry" />
        </mxCell>
        <mxCell id="6m_CiA1ZFj7QNIabP0qD-91" value="" style="rounded=0;whiteSpace=wrap;html=1;fillColor=#f8cecc;strokeColor=#b85450;" vertex="1" parent="1">
          <mxGeometry x="280" y="500" width="40" height="20" as="geometry" />
        </mxCell>
        <mxCell id="6m_CiA1ZFj7QNIabP0qD-92" value="" style="rounded=0;whiteSpace=wrap;html=1;fillColor=#f8cecc;strokeColor=#b85450;" vertex="1" parent="1">
          <mxGeometry x="320" y="500" width="40" height="20" as="geometry" />
        </mxCell>
        <mxCell id="6m_CiA1ZFj7QNIabP0qD-93" value="" style="rounded=0;whiteSpace=wrap;html=1;fillColor=#f8cecc;strokeColor=#b85450;" vertex="1" parent="1">
          <mxGeometry x="360" y="500" width="40" height="20" as="geometry" />
        </mxCell>
        <mxCell id="6m_CiA1ZFj7QNIabP0qD-94" value="" style="rounded=0;whiteSpace=wrap;html=1;fillColor=#f8cecc;strokeColor=#b85450;" vertex="1" parent="1">
          <mxGeometry x="400" y="500" width="40" height="20" as="geometry" />
        </mxCell>
        <mxCell id="6m_CiA1ZFj7QNIabP0qD-95" value="" style="rounded=0;whiteSpace=wrap;html=1;fillColor=#f8cecc;strokeColor=#b85450;" vertex="1" parent="1">
          <mxGeometry x="440" y="500" width="40" height="20" as="geometry" />
        </mxCell>
        <mxCell id="6m_CiA1ZFj7QNIabP0qD-96" value="" style="rounded=0;whiteSpace=wrap;html=1;fillColor=#f8cecc;strokeColor=#b85450;" vertex="1" parent="1">
          <mxGeometry x="480" y="500" width="40" height="20" as="geometry" />
        </mxCell>
        <mxCell id="6m_CiA1ZFj7QNIabP0qD-97" value="" style="rounded=0;whiteSpace=wrap;html=1;fillColor=#f8cecc;strokeColor=#b85450;" vertex="1" parent="1">
          <mxGeometry x="520" y="500" width="40" height="20" as="geometry" />
        </mxCell>
        <mxCell id="6m_CiA1ZFj7QNIabP0qD-98" value="" style="rounded=0;whiteSpace=wrap;html=1;fillColor=#f8cecc;strokeColor=#b85450;" vertex="1" parent="1">
          <mxGeometry x="560" y="500" width="40" height="20" as="geometry" />
        </mxCell>
        <mxCell id="6m_CiA1ZFj7QNIabP0qD-99" value="" style="rounded=0;whiteSpace=wrap;html=1;fillColor=#f8cecc;strokeColor=#b85450;" vertex="1" parent="1">
          <mxGeometry x="600" y="500" width="40" height="20" as="geometry" />
        </mxCell>
        <mxCell id="6m_CiA1ZFj7QNIabP0qD-100" value="" style="rounded=0;whiteSpace=wrap;html=1;fillColor=#d5e8d4;strokeColor=#82b366;" vertex="1" parent="1">
          <mxGeometry x="640" y="500" width="40" height="20" as="geometry" />
        </mxCell>
        <mxCell id="6m_CiA1ZFj7QNIabP0qD-101" value="" style="rounded=0;whiteSpace=wrap;html=1;fillColor=#f8cecc;strokeColor=#b85450;" vertex="1" parent="1">
          <mxGeometry x="280" y="460" width="40" height="20" as="geometry" />
        </mxCell>
        <mxCell id="6m_CiA1ZFj7QNIabP0qD-102" value="" style="rounded=0;whiteSpace=wrap;html=1;fillColor=#f8cecc;strokeColor=#b85450;" vertex="1" parent="1">
          <mxGeometry x="320" y="460" width="40" height="20" as="geometry" />
        </mxCell>
        <mxCell id="6m_CiA1ZFj7QNIabP0qD-103" value="" style="rounded=0;whiteSpace=wrap;html=1;fillColor=#f8cecc;strokeColor=#b85450;" vertex="1" parent="1">
          <mxGeometry x="360" y="460" width="40" height="20" as="geometry" />
        </mxCell>
        <mxCell id="6m_CiA1ZFj7QNIabP0qD-104" value="" style="rounded=0;whiteSpace=wrap;html=1;fillColor=#f8cecc;strokeColor=#b85450;" vertex="1" parent="1">
          <mxGeometry x="400" y="460" width="40" height="20" as="geometry" />
        </mxCell>
        <mxCell id="6m_CiA1ZFj7QNIabP0qD-105" value="" style="rounded=0;whiteSpace=wrap;html=1;fillColor=#f8cecc;strokeColor=#b85450;" vertex="1" parent="1">
          <mxGeometry x="440" y="460" width="40" height="20" as="geometry" />
        </mxCell>
        <mxCell id="6m_CiA1ZFj7QNIabP0qD-106" value="" style="rounded=0;whiteSpace=wrap;html=1;fillColor=#f8cecc;strokeColor=#b85450;" vertex="1" parent="1">
          <mxGeometry x="480" y="460" width="40" height="20" as="geometry" />
        </mxCell>
        <mxCell id="6m_CiA1ZFj7QNIabP0qD-107" value="" style="rounded=0;whiteSpace=wrap;html=1;fillColor=#f8cecc;strokeColor=#b85450;" vertex="1" parent="1">
          <mxGeometry x="520" y="460" width="40" height="20" as="geometry" />
        </mxCell>
        <mxCell id="6m_CiA1ZFj7QNIabP0qD-108" value="" style="rounded=0;whiteSpace=wrap;html=1;fillColor=#f8cecc;strokeColor=#b85450;" vertex="1" parent="1">
          <mxGeometry x="560" y="460" width="40" height="20" as="geometry" />
        </mxCell>
        <mxCell id="6m_CiA1ZFj7QNIabP0qD-109" value="" style="rounded=0;whiteSpace=wrap;html=1;fillColor=#d5e8d4;strokeColor=#82b366;" vertex="1" parent="1">
          <mxGeometry x="600" y="460" width="40" height="20" as="geometry" />
        </mxCell>
        <mxCell id="6m_CiA1ZFj7QNIabP0qD-110" value="" style="rounded=0;whiteSpace=wrap;html=1;fillColor=#f8cecc;strokeColor=#b85450;" vertex="1" parent="1">
          <mxGeometry x="640" y="460" width="40" height="20" as="geometry" />
        </mxCell>
      </root>
    </mxGraphModel>
  </diagram>
</mxfile>
